M48
METRIC,LZ,000.000
;FILE_FORMAT=3:3
;TYPE=PLATED
;Layer: PTH_Through
;EasyEDA v6.5.54, 2026-06-06 13:59:06
;68a7624a29224716bc3933342972c0b3,740549724bca42c3b7f260a0217f19ee,10
;Gerber Generator version 0.2
;Holesize 1 = 0.310 mm
T01C0.310
;Holesize 2 = 1.000 mm
T02C1.000
;Holesize 3 = 1.001 mm
T03C1.001
;Holesize 4 = 1.101 mm
T04C1.101
;Holesize 5 = 2.501 mm
T05C2.501
%
G05
G90
T01
X149606Y-100711
X125222Y-065913
X120523Y-112014
X120396Y-065786
X116332Y-119380
X118872Y-071628
X184023Y-136652
X121920Y-066675
X167132Y-137922
X118110Y-082804
X224409Y-135255
X113919Y-083439
X190500Y-171704
X194945Y-171958
X117475Y-110236
X115316Y-106045
X098679Y-091440
X101600Y-104013
X224282Y-173482
X222758Y-143764
X198628Y-119634
X178943Y-109474
X150114Y-109982
X122555Y-107442
X117221Y-103251
X117983Y-101473
T02
X169930Y-060573
X167390Y-060573
X164850Y-060573
X162310Y-060573
X159770Y-060573
X157230Y-060573
X154690Y-060573
X152150Y-060573
X149610Y-060573
X147070Y-060573
X144530Y-060573
X141990Y-060573
X139450Y-060573
X136910Y-060573
X134370Y-060573
X131830Y-060573
T03
X124079Y-124841
X121539Y-124841
X118999Y-124841
X116459Y-124841
T04
X101092Y-060589
X101092Y-063129
X101092Y-065669
X101092Y-068209
X101092Y-070749
X101092Y-073289
X101092Y-075829
X101092Y-078369
X101092Y-080909
X101092Y-083449
X101092Y-085989
X101092Y-088529
X101092Y-091069
X101092Y-093609
X101092Y-096149
X116332Y-096149
X116332Y-093609
X116332Y-091069
X116332Y-088529
X116332Y-085989
X116332Y-083449
X116332Y-080909
X116332Y-078369
X116332Y-075829
X116332Y-073289
X116332Y-070749
X116332Y-068209
X116332Y-065669
X116332Y-063129
X116332Y-060589
T05
X126267Y-060573G85X126393Y-060573
X126267Y-091573G85X126393Y-091573
X201267Y-060573G85X201393Y-060573
X201267Y-091573G85X201393Y-091573
M30
