M48
METRIC,LZ,000.000
;FILE_FORMAT=3:3
;TYPE=PLATED
;Layer: PTH_Through_Via
;EasyEDA v6.5.54, 2026-06-06 13:59:06
;68a7624a29224716bc3933342972c0b3,740549724bca42c3b7f260a0217f19ee,10
;Gerber Generator version 0.2
;Holesize 1 = 0.310 mm
T01C0.310
%
G05
G90
T01
X149606Y-100711
X125222Y-065913
X120523Y-112014
X120396Y-065786
X116332Y-119380
X118872Y-071628
X184023Y-136652
X121920Y-066675
X167132Y-137922
X118110Y-082804
X224409Y-135255
X113919Y-083439
X190500Y-171704
X194945Y-171958
X117475Y-110236
X115316Y-106045
X098679Y-091440
X101600Y-104013
X224282Y-173482
X222758Y-143764
X198628Y-119634
X178943Y-109474
X150114Y-109982
X122555Y-107442
X117221Y-103251
X117983Y-101473
M30
