G04 Layer: TopLayer*
G04 EasyEDA v6.5.54, 2026-06-06 13:59:06*
G04 68a7624a29224716bc3933342972c0b3,740549724bca42c3b7f260a0217f19ee,10*
G04 Gerber Generator version 0.2*
G04 Scale: 100 percent, Rotated: No, Reflected: No *
G04 Dimensions in millimeters *
G04 leading zeros omitted , absolute positions ,4 integer and 5 decimal *
%FSLAX45Y45*%
%MOMM*%

%ADD10C,0.2032*%
%ADD11C,0.2540*%
%ADD12R,5.0800X11.4300*%
%ADD13R,1.7000X1.0000*%
%ADD14R,3.0000X8.5000*%
%ADD15C,1.7000*%
%ADD16C,1.6000*%
%ADD17C,0.0148*%
%ADD18R,1.6000X1.6000*%
%ADD19C,3.2000*%
%ADD20C,1.8000*%
%ADD21R,1.8000X1.8000*%
%ADD22C,0.6200*%

%LPD*%
D10*
X25008077Y-15303500D02*
G01*
X24814275Y-15303500D01*
X25008077Y-15303500D02*
G01*
X25008077Y-15423642D01*
X24915875Y-15303500D02*
G01*
X24915875Y-15377413D01*
X24814275Y-15303500D02*
G01*
X24814275Y-15423642D01*
X24943561Y-15595345D02*
G01*
X24814275Y-15595345D01*
X24915875Y-15595345D02*
G01*
X24934163Y-15576804D01*
X24943561Y-15558516D01*
X24943561Y-15530829D01*
X24934163Y-15512287D01*
X24915875Y-15493745D01*
X24888190Y-15484602D01*
X24869648Y-15484602D01*
X24841961Y-15493745D01*
X24823420Y-15512287D01*
X24814275Y-15530829D01*
X24814275Y-15558516D01*
X24823420Y-15576804D01*
X24841961Y-15595345D01*
X24915875Y-15757905D02*
G01*
X24934163Y-15748762D01*
X24943561Y-15721076D01*
X24943561Y-15693389D01*
X24934163Y-15665450D01*
X24915875Y-15656305D01*
X24897334Y-15665450D01*
X24888190Y-15683992D01*
X24878791Y-15730220D01*
X24869648Y-15748762D01*
X24851106Y-15757905D01*
X24841961Y-15757905D01*
X24823420Y-15748762D01*
X24814275Y-15721076D01*
X24814275Y-15693389D01*
X24823420Y-15665450D01*
X24841961Y-15656305D01*
X25008077Y-15846552D02*
G01*
X24851106Y-15846552D01*
X24823420Y-15855950D01*
X24814275Y-15874237D01*
X24814275Y-15892779D01*
X24943561Y-15818866D02*
G01*
X24943561Y-15883636D01*
X24888190Y-15953739D02*
G01*
X24888190Y-16064484D01*
X24906477Y-16064484D01*
X24925020Y-16055339D01*
X24934163Y-16046195D01*
X24943561Y-16027654D01*
X24943561Y-15999968D01*
X24934163Y-15981426D01*
X24915875Y-15962884D01*
X24888190Y-15953739D01*
X24869648Y-15953739D01*
X24841961Y-15962884D01*
X24823420Y-15981426D01*
X24814275Y-15999968D01*
X24814275Y-16027654D01*
X24823420Y-16046195D01*
X24841961Y-16064484D01*
X24943561Y-16125444D02*
G01*
X24814275Y-16125444D01*
X24888190Y-16125444D02*
G01*
X24915875Y-16134842D01*
X24934163Y-16153129D01*
X24943561Y-16171671D01*
X24943561Y-16199357D01*
X25008077Y-16402557D02*
G01*
X24814275Y-16402557D01*
X25008077Y-16402557D02*
G01*
X25008077Y-16522700D01*
X24915875Y-16402557D02*
G01*
X24915875Y-16476471D01*
X24814275Y-16402557D02*
G01*
X24814275Y-16522700D01*
X24943561Y-16694404D02*
G01*
X24795734Y-16694404D01*
X24768048Y-16685260D01*
X24758650Y-16676116D01*
X24749506Y-16657574D01*
X24749506Y-16629887D01*
X24758650Y-16611345D01*
X24915875Y-16694404D02*
G01*
X24934163Y-16676116D01*
X24943561Y-16657574D01*
X24943561Y-16629887D01*
X24934163Y-16611345D01*
X24915875Y-16592804D01*
X24888190Y-16583660D01*
X24869648Y-16583660D01*
X24841961Y-16592804D01*
X24823420Y-16611345D01*
X24814275Y-16629887D01*
X24814275Y-16657574D01*
X24823420Y-16676116D01*
X24841961Y-16694404D01*
X24943561Y-16866362D02*
G01*
X24795734Y-16866362D01*
X24768048Y-16856963D01*
X24758650Y-16847820D01*
X24749506Y-16829278D01*
X24749506Y-16801592D01*
X24758650Y-16783050D01*
X24915875Y-16866362D02*
G01*
X24934163Y-16847820D01*
X24943561Y-16829278D01*
X24943561Y-16801592D01*
X24934163Y-16783050D01*
X24915875Y-16764762D01*
X24888190Y-16755363D01*
X24869648Y-16755363D01*
X24841961Y-16764762D01*
X24823420Y-16783050D01*
X24814275Y-16801592D01*
X24814275Y-16829278D01*
X24823420Y-16847820D01*
X24841961Y-16866362D01*
X25008077Y-17069562D02*
G01*
X24814275Y-17069562D01*
X25008077Y-17069562D02*
G01*
X25008077Y-17189450D01*
X24915875Y-17069562D02*
G01*
X24915875Y-17143476D01*
X24943561Y-17250410D02*
G01*
X24814275Y-17250410D01*
X24888190Y-17250410D02*
G01*
X24915875Y-17259808D01*
X24934163Y-17278350D01*
X24943561Y-17296637D01*
X24943561Y-17324324D01*
X24943561Y-17431512D02*
G01*
X24934163Y-17412970D01*
X24915875Y-17394681D01*
X24888190Y-17385284D01*
X24869648Y-17385284D01*
X24841961Y-17394681D01*
X24823420Y-17412970D01*
X24814275Y-17431512D01*
X24814275Y-17459198D01*
X24823420Y-17477739D01*
X24841961Y-17496281D01*
X24869648Y-17505426D01*
X24888190Y-17505426D01*
X24915875Y-17496281D01*
X24934163Y-17477739D01*
X24943561Y-17459198D01*
X24943561Y-17431512D01*
X24943561Y-17566386D02*
G01*
X24814275Y-17566386D01*
X24906477Y-17566386D02*
G01*
X24934163Y-17594071D01*
X24943561Y-17612613D01*
X24943561Y-17640300D01*
X24934163Y-17658842D01*
X24906477Y-17667986D01*
X24814275Y-17667986D01*
X24906477Y-17667986D02*
G01*
X24934163Y-17695671D01*
X24943561Y-17714213D01*
X24943561Y-17741900D01*
X24934163Y-17760442D01*
X24906477Y-17769586D01*
X24814275Y-17769586D01*
X24980391Y-18102071D02*
G01*
X24998934Y-18083529D01*
X25008077Y-18055844D01*
X25008077Y-18019013D01*
X24998934Y-17991328D01*
X24980391Y-17972786D01*
X24961850Y-17972786D01*
X24943561Y-17981929D01*
X24934163Y-17991328D01*
X24925020Y-18009870D01*
X24906477Y-18065242D01*
X24897334Y-18083529D01*
X24888190Y-18092928D01*
X24869648Y-18102071D01*
X24841961Y-18102071D01*
X24823420Y-18083529D01*
X24814275Y-18055844D01*
X24814275Y-18019013D01*
X24823420Y-17991328D01*
X24841961Y-17972786D01*
X25008077Y-18163031D02*
G01*
X24998934Y-18172429D01*
X25008077Y-18181574D01*
X25017475Y-18172429D01*
X25008077Y-18163031D01*
X24943561Y-18172429D02*
G01*
X24814275Y-18172429D01*
X24943561Y-18242534D02*
G01*
X24814275Y-18242534D01*
X24906477Y-18242534D02*
G01*
X24934163Y-18270220D01*
X24943561Y-18288762D01*
X24943561Y-18316448D01*
X24934163Y-18334989D01*
X24906477Y-18344134D01*
X24814275Y-18344134D01*
X24906477Y-18344134D02*
G01*
X24934163Y-18371820D01*
X24943561Y-18390362D01*
X24943561Y-18418048D01*
X24934163Y-18436589D01*
X24906477Y-18445734D01*
X24814275Y-18445734D01*
X24943561Y-18506694D02*
G01*
X24749506Y-18506694D01*
X24915875Y-18506694D02*
G01*
X24934163Y-18525236D01*
X24943561Y-18543524D01*
X24943561Y-18571210D01*
X24934163Y-18589752D01*
X24915875Y-18608294D01*
X24888190Y-18617437D01*
X24869648Y-18617437D01*
X24841961Y-18608294D01*
X24823420Y-18589752D01*
X24814275Y-18571210D01*
X24814275Y-18543524D01*
X24823420Y-18525236D01*
X24841961Y-18506694D01*
X25008077Y-18678398D02*
G01*
X24814275Y-18678398D01*
X25008077Y-18739358D02*
G01*
X24998934Y-18748755D01*
X25008077Y-18757900D01*
X25017475Y-18748755D01*
X25008077Y-18739358D01*
X24943561Y-18748755D02*
G01*
X24814275Y-18748755D01*
X25008077Y-18892774D02*
G01*
X25008077Y-18874231D01*
X24998934Y-18855689D01*
X24971248Y-18846545D01*
X24814275Y-18846545D01*
X24943561Y-18818860D02*
G01*
X24943561Y-18883629D01*
D11*
X17894300Y-10947400D02*
G01*
X17564100Y-10947400D01*
X17513300Y-10998200D01*
X15011400Y-10998200D01*
X19494500Y-17195800D02*
G01*
X19608800Y-17081500D01*
X24206200Y-17081500D01*
X24333200Y-16954500D01*
X24333200Y-14628235D01*
X24333200Y-14630400D01*
X24320500Y-12141200D01*
X23317200Y-11137900D01*
X12344400Y-11137900D01*
X12230100Y-11023600D01*
X11747500Y-11023600D01*
X11798300Y-10147300D02*
G01*
X11950700Y-9994900D01*
X11949684Y-8598915D01*
X11633200Y-8598915D01*
X12255500Y-10744200D02*
G01*
X11976100Y-10464800D01*
X11760200Y-10464800D01*
X11722100Y-10426700D01*
X11722100Y-10325100D01*
X22275800Y-14376400D02*
G01*
X19862800Y-11963400D01*
X19850100Y-11963400D01*
X22727790Y-17798188D02*
G01*
X22428200Y-17498590D01*
X22428200Y-17348200D01*
X11531600Y-10604500D02*
G01*
X11328400Y-10401300D01*
X10160000Y-10401300D01*
X9867900Y-9144000D02*
G01*
X9907015Y-9106915D01*
X10109200Y-9106915D01*
X16949290Y-17798188D02*
G01*
X16918409Y-17767300D01*
X16421100Y-17767300D01*
X17018000Y-17170400D01*
X19050000Y-17170400D01*
X11391900Y-8343900D02*
G01*
X11633200Y-8344915D01*
X11811000Y-8280400D02*
G01*
X11811000Y-8229600D01*
X11672315Y-8090915D01*
X11633200Y-8090915D01*
X16936590Y-13784988D02*
G01*
X16929384Y-13792200D01*
X16713200Y-13792200D01*
X22727790Y-13797688D02*
G01*
X22455609Y-13525500D01*
X22440900Y-13525500D01*
X23347809Y-14167711D02*
G01*
X23368000Y-14187909D01*
X23368000Y-14592300D01*
X23228300Y-14732000D01*
X19189700Y-14732000D01*
X18402300Y-13944600D01*
X17569309Y-18168211D02*
G01*
X17574790Y-18173700D01*
X18859500Y-18173700D01*
X19291300Y-17805400D01*
X19291300Y-17081500D01*
X18218150Y-16503650D01*
X18218150Y-14116050D01*
X23347809Y-18168211D02*
G01*
X23520400Y-18340809D01*
X23520400Y-18402300D01*
X23253700Y-18669000D01*
X22860000Y-18669000D01*
X22847300Y-18656300D01*
X18567400Y-18656300D01*
X18539221Y-18628121D01*
X18539221Y-18173700D01*
X11633200Y-6312915D02*
G01*
X11950700Y-6134100D01*
X11938000Y-5613400D01*
X12103100Y-5549900D01*
X12675615Y-5549900D01*
X13183008Y-6057292D01*
X12141200Y-6654800D02*
G01*
X12130981Y-6644581D01*
X12130981Y-6403281D01*
X12192000Y-6667500D02*
G01*
X12153900Y-6667500D01*
X12141200Y-6654800D01*
X17556609Y-14155011D02*
G01*
X17574790Y-14173200D01*
X18161000Y-14173200D01*
X18389600Y-13944600D01*
X18402300Y-13944600D01*
X18402300Y-13665200D01*
X11884718Y-7162800D02*
G01*
X11884718Y-6820915D01*
X11645900Y-12484100D02*
G01*
X11633200Y-12471400D01*
X11633200Y-11938000D01*
X11899900Y-12484100D02*
G01*
X11899900Y-11722100D01*
X11404600Y-11226800D01*
X11353800Y-11226800D01*
X11341100Y-11214100D01*
X10058400Y-11214100D01*
X9613900Y-10769600D01*
X9613900Y-8229600D01*
X9752584Y-8090915D01*
X10109200Y-8090915D01*
X10109200Y-8344915D02*
G01*
X9791700Y-8343900D01*
X9753600Y-8382000D01*
X9753600Y-9398000D01*
X12153900Y-12484100D02*
G01*
X12153900Y-11874500D01*
X12141200Y-11861800D01*
X12141200Y-11620500D01*
X11531600Y-11036300D01*
X10883900Y-11036300D01*
X10083800Y-11036300D01*
X9753600Y-10706100D01*
X9753600Y-9398000D01*
X12407900Y-12484100D02*
G01*
X12369800Y-12446000D01*
X12369800Y-11518900D01*
X12115800Y-11264900D01*
X12052300Y-11201400D01*
X12039600Y-6578600D02*
G01*
X12004179Y-6543184D01*
X12004179Y-6276484D01*
X12319000Y-6591300D02*
G01*
X11950700Y-6223000D01*
X11950700Y-6134100D01*
X12522200Y-6591300D02*
G01*
X12319000Y-6591300D01*
X14617700Y-10074275D02*
G01*
X14620875Y-10071100D01*
X14960600Y-10071100D01*
X14453108Y-6057392D02*
G01*
X14452600Y-6172200D01*
X14300200Y-6299200D01*
X13665200Y-6311900D01*
X12217400Y-7607300D01*
X12192000Y-7632700D01*
X12179300Y-9245600D01*
X12192000Y-9271000D01*
X12344400Y-9372600D01*
X14922500Y-9372600D01*
X15138400Y-9588500D01*
X15138400Y-9893300D01*
X15138400Y-9918700D01*
X15138400Y-10718800D01*
X14960600Y-10883900D01*
X10147300Y-10883900D01*
X9893300Y-10591800D01*
X9880600Y-9474200D01*
X9955784Y-9360915D01*
X10109200Y-9360915D01*
X16611600Y-5943600D02*
G01*
X16611600Y-6769100D01*
X16548100Y-6832600D01*
X14884400Y-6832600D01*
X14833600Y-6781800D01*
X14833600Y-5549900D01*
X14770100Y-5486400D01*
X14020800Y-5486400D01*
X13965844Y-5541360D01*
X13965844Y-5575300D01*
X16993108Y-6057392D02*
G01*
X16992600Y-5892800D01*
X16941800Y-5842000D01*
X16662400Y-5842000D01*
X16611600Y-5905500D01*
X16611600Y-5943600D01*
X15548099Y-10134600D02*
G01*
X15214600Y-9801100D01*
X15214600Y-7899400D01*
X14566900Y-7505700D01*
X14566900Y-5715000D01*
X14516100Y-5651500D01*
X14389100Y-5651500D01*
X14338300Y-5727700D01*
X14338300Y-5803900D01*
X14325600Y-5842000D01*
X14325600Y-6146800D01*
X14262100Y-6210300D01*
X14071600Y-6210300D01*
X14071600Y-5778500D01*
X14008100Y-5676900D01*
X13385800Y-5676900D01*
X13309600Y-5753100D01*
X13309600Y-6184900D01*
X16739008Y-6057292D02*
G01*
X17548100Y-6866384D01*
X17548100Y-10134600D01*
X9842500Y-6946422D02*
G01*
X9970988Y-7074915D01*
X10109200Y-7074915D01*
X16485108Y-6057392D02*
G01*
X16484600Y-6489700D01*
X16446500Y-6527800D01*
X15125700Y-6527800D01*
X15074900Y-6477000D01*
X15074900Y-5727700D01*
X15354300Y-5448300D01*
X15354300Y-5118100D01*
X15252700Y-5016500D01*
X9956800Y-5016500D01*
X9842500Y-5130800D01*
X9842500Y-6959600D01*
X9740900Y-7213600D02*
G01*
X9856215Y-7328915D01*
X10109200Y-7328915D01*
X16231108Y-6057392D02*
G01*
X16230600Y-6337300D01*
X16179800Y-6388100D01*
X15341600Y-6388100D01*
X15341600Y-5727700D01*
X15532100Y-5537200D01*
X15532100Y-4953000D01*
X15481300Y-4902200D01*
X9817100Y-4902200D01*
X9740900Y-4978400D01*
X9740900Y-7213600D01*
X14199108Y-6057392D02*
G01*
X14198600Y-5702300D01*
X14084300Y-5575300D01*
X12865100Y-5575300D01*
X12776200Y-5575300D01*
X12699491Y-5573773D01*
X13945108Y-6057392D02*
G01*
X13931900Y-6044184D01*
X13931900Y-5956300D01*
X13906500Y-5905500D01*
X13614400Y-5905500D01*
X13563600Y-5969000D01*
X13563600Y-6210300D01*
X12065000Y-7556500D01*
X12052300Y-10223500D01*
X9969500Y-10236200D01*
X9956800Y-9767315D01*
X10109200Y-9614915D01*
X9588500Y-7759700D02*
G01*
X10109200Y-7836915D01*
X9588500Y-7759700D02*
G01*
X9525000Y-7721600D01*
X9563100Y-5778500D01*
X9563100Y-5676900D01*
X9563100Y-5562600D01*
X15633700Y-4826000D02*
G01*
X15608300Y-4800600D01*
X9702800Y-4800600D01*
X9652000Y-4851400D01*
X9652000Y-7454900D01*
X9765284Y-7582915D01*
X10109200Y-7582915D01*
X15723108Y-6057392D02*
G01*
X15786100Y-5765800D01*
X15798800Y-4686300D01*
X13957300Y-4699000D01*
X13169900Y-4699000D01*
X12598400Y-4699000D01*
X11836400Y-4699000D01*
X11226800Y-4699000D01*
X10642600Y-4699000D01*
X9613900Y-4699000D01*
X9563100Y-4800600D01*
X9563100Y-5486400D01*
X9563100Y-5562600D01*
X15977108Y-6057392D02*
G01*
X15976600Y-6197600D01*
X15938500Y-6235700D01*
X15633700Y-6235700D01*
X15608300Y-6210300D01*
X15608300Y-6197600D01*
X15595600Y-6184900D01*
X15595600Y-5727700D01*
X15633700Y-5689600D01*
X15633700Y-4826000D01*
X13690600Y-6057392D02*
G01*
X13690600Y-6184900D01*
X12827000Y-6972300D01*
X12128500Y-7581900D01*
X12115800Y-9598149D01*
X12585700Y-10068049D01*
X13437008Y-6057292D02*
G01*
X12673383Y-6820915D01*
X11633200Y-6820915D01*
D12*
G01*
X12585700Y-10067925D03*
G01*
X14617700Y-10074275D03*
D13*
G01*
X22727793Y-17798186D03*
G01*
X23347806Y-17798186D03*
G01*
X22727793Y-18168213D03*
G01*
X23347806Y-18168213D03*
G01*
X16949293Y-17798186D03*
G01*
X17569306Y-17798186D03*
G01*
X16949293Y-18168213D03*
G01*
X17569306Y-18168213D03*
G01*
X16936593Y-13784986D03*
G01*
X17556606Y-13784986D03*
G01*
X16936593Y-14155013D03*
G01*
X17556606Y-14155013D03*
G01*
X22727793Y-13797686D03*
G01*
X23347806Y-13797686D03*
G01*
X22727793Y-14167713D03*
G01*
X23347806Y-14167713D03*
D14*
G01*
X15548102Y-10134600D03*
G01*
X17548098Y-10134600D03*
D15*
G01*
X10109200Y-6058915D03*
G01*
X10109200Y-6312915D03*
G01*
X10109200Y-6566915D03*
G01*
X10109200Y-6820915D03*
G01*
X10109200Y-7074915D03*
G01*
X10109200Y-7328915D03*
G01*
X10109200Y-7582915D03*
G01*
X10109200Y-7836915D03*
G01*
X10109200Y-8090915D03*
G01*
X10109200Y-8344915D03*
G01*
X10109200Y-8598915D03*
G01*
X10109200Y-8852915D03*
G01*
X10109200Y-9106915D03*
G01*
X10109200Y-9360915D03*
G01*
X10109200Y-9614915D03*
G01*
X11633200Y-9614915D03*
G01*
X11633200Y-9360915D03*
G01*
X11633200Y-9106915D03*
G01*
X11633200Y-8852915D03*
G01*
X11633200Y-8598915D03*
G01*
X11633200Y-8344915D03*
G01*
X11633200Y-8090915D03*
G01*
X11633200Y-7836915D03*
G01*
X11633200Y-7582915D03*
G01*
X11633200Y-7328915D03*
G01*
X11633200Y-7074915D03*
G01*
X11633200Y-6820915D03*
G01*
X11633200Y-6566915D03*
G01*
X11633200Y-6312915D03*
G01*
X11633200Y-6058915D03*
D16*
G01*
X16993006Y-6057290D03*
G01*
X16739006Y-6057290D03*
G01*
X16485006Y-6057290D03*
G01*
X16231006Y-6057290D03*
G01*
X15977006Y-6057290D03*
G01*
X15723006Y-6057290D03*
G01*
X15469006Y-6057290D03*
G01*
X15215006Y-6057290D03*
G01*
X14961006Y-6057290D03*
G01*
X14707006Y-6057290D03*
G01*
X14453006Y-6057290D03*
G01*
X14199006Y-6057290D03*
G01*
X13945006Y-6057290D03*
G01*
X13691006Y-6057290D03*
G01*
X13437006Y-6057290D03*
D18*
G01*
X13183006Y-6057290D03*
D19*
G01*
X12632994Y-6057290D03*
G01*
X12632994Y-9157309D03*
G01*
X20133005Y-6057290D03*
G01*
X20133005Y-9157309D03*
D20*
G01*
X12407897Y-12484100D03*
G01*
X12153897Y-12484100D03*
G01*
X11899897Y-12484100D03*
D21*
G01*
X11645897Y-12484100D03*
D22*
G01*
X14960600Y-10071100D03*
G01*
X12522200Y-6591300D03*
G01*
X12052300Y-11201400D03*
G01*
X12039600Y-6578600D03*
G01*
X11633200Y-11938000D03*
G01*
X11887200Y-7162800D03*
G01*
X18402300Y-13665200D03*
G01*
X12192000Y-6667500D03*
G01*
X16713200Y-13792200D03*
G01*
X11811000Y-8280400D03*
G01*
X22440900Y-13525500D03*
G01*
X11391900Y-8343900D03*
G01*
X19050000Y-17170400D03*
G01*
X19494500Y-17195800D03*
G01*
X11747500Y-11023600D03*
G01*
X11531600Y-10604500D03*
G01*
X9867900Y-9144000D03*
G01*
X10160000Y-10401300D03*
G01*
X22428200Y-17348200D03*
G01*
X22275800Y-14376400D03*
G01*
X19862800Y-11963400D03*
G01*
X17894300Y-10947400D03*
G01*
X15011400Y-10998200D03*
G01*
X12255500Y-10744200D03*
G01*
X11722100Y-10325100D03*
G01*
X11798300Y-10147300D03*
M02*
