G04 Layer: BottomLayer*
G04 EasyEDA v6.5.54, 2026-06-06 13:59:06*
G04 68a7624a29224716bc3933342972c0b3,740549724bca42c3b7f260a0217f19ee,10*
G04 Gerber Generator version 0.2*
G04 Scale: 100 percent, Rotated: No, Reflected: No *
G04 Dimensions in millimeters *
G04 leading zeros omitted , absolute positions ,4 integer and 5 decimal *
%FSLAX45Y45*%
%MOMM*%

%ADD10C,0.2540*%
%ADD11C,1.7000*%
%ADD12C,1.6000*%
%ADD13R,1.6000X1.6000*%
%ADD14C,3.2000*%
%ADD15C,1.8000*%
%ADD16R,1.8000X1.8000*%
%ADD17C,0.6200*%
%ADD18C,0.0136*%

%LPD*%
D10*
X11722100Y-10325100D02*
G01*
X11798300Y-10248900D01*
X11798300Y-10147300D01*
X15011400Y-10998200D02*
G01*
X14795500Y-10782300D01*
X14262100Y-10782300D01*
X14249400Y-10769600D01*
X12373371Y-10769600D01*
X12347971Y-10744200D01*
X12255500Y-10744200D01*
X12242800Y-10744200D01*
X19862800Y-11963400D02*
G01*
X18846800Y-10947400D01*
X17894300Y-10947400D01*
X22428200Y-17348200D02*
G01*
X22275800Y-17195800D01*
X22275800Y-14376400D01*
X10160000Y-10401300D02*
G01*
X10071100Y-10401300D01*
X9867900Y-10185400D01*
X9867900Y-9144000D01*
X11747500Y-11023600D02*
G01*
X11531600Y-10807700D01*
X11531600Y-10604500D01*
X19050000Y-17170400D02*
G01*
X19075400Y-17195800D01*
X19494500Y-17195800D01*
X22440900Y-13525500D02*
G01*
X21475700Y-14490700D01*
X9664700Y-14490700D01*
X9474200Y-14300200D01*
X9474200Y-8001000D01*
X9563100Y-7912100D01*
X9613900Y-7962900D01*
X10274300Y-7962900D01*
X10655300Y-8343900D01*
X11391900Y-8343900D01*
X16713200Y-13792200D02*
G01*
X16129000Y-14376400D01*
X9690100Y-14376400D01*
X9563100Y-14249400D01*
X9563100Y-14109700D01*
X9550400Y-14097000D01*
X9550400Y-12293600D01*
X11836400Y-10007600D01*
X11836400Y-9385300D01*
X11811000Y-9359900D01*
X11811000Y-8280400D01*
X18402300Y-13665200D02*
G01*
X12611100Y-7874000D01*
X12611100Y-7645400D01*
X12192000Y-7226300D01*
X12192000Y-6667500D01*
X11633200Y-11938000D02*
G01*
X11887200Y-11684000D01*
X11887200Y-7251700D01*
X11887200Y-7251700D02*
G01*
X11887200Y-7162800D01*
X12052300Y-11201400D02*
G01*
X12039600Y-11188700D01*
X12039600Y-6578600D01*
X14960600Y-10071100D02*
G01*
X15024100Y-10007600D01*
X15024100Y-9080500D01*
X12534900Y-6591300D01*
X12522200Y-6591300D01*
D11*
G01*
X10109200Y-6058915D03*
G01*
X10109200Y-6312915D03*
G01*
X10109200Y-6566915D03*
G01*
X10109200Y-6820915D03*
G01*
X10109200Y-7074915D03*
G01*
X10109200Y-7328915D03*
G01*
X10109200Y-7582915D03*
G01*
X10109200Y-7836915D03*
G01*
X10109200Y-8090915D03*
G01*
X10109200Y-8344915D03*
G01*
X10109200Y-8598915D03*
G01*
X10109200Y-8852915D03*
G01*
X10109200Y-9106915D03*
G01*
X10109200Y-9360915D03*
G01*
X10109200Y-9614915D03*
G01*
X11633200Y-9614915D03*
G01*
X11633200Y-9360915D03*
G01*
X11633200Y-9106915D03*
G01*
X11633200Y-8852915D03*
G01*
X11633200Y-8598915D03*
G01*
X11633200Y-8344915D03*
G01*
X11633200Y-8090915D03*
G01*
X11633200Y-7836915D03*
G01*
X11633200Y-7582915D03*
G01*
X11633200Y-7328915D03*
G01*
X11633200Y-7074915D03*
G01*
X11633200Y-6820915D03*
G01*
X11633200Y-6566915D03*
G01*
X11633200Y-6312915D03*
G01*
X11633200Y-6058915D03*
D12*
G01*
X16993006Y-6057290D03*
G01*
X16739006Y-6057290D03*
G01*
X16485006Y-6057290D03*
G01*
X16231006Y-6057290D03*
G01*
X15977006Y-6057290D03*
G01*
X15723006Y-6057290D03*
G01*
X15469006Y-6057290D03*
G01*
X15215006Y-6057290D03*
G01*
X14961006Y-6057290D03*
G01*
X14707006Y-6057290D03*
G01*
X14453006Y-6057290D03*
G01*
X14199006Y-6057290D03*
G01*
X13945006Y-6057290D03*
G01*
X13691006Y-6057290D03*
G01*
X13437006Y-6057290D03*
D13*
G01*
X13183006Y-6057290D03*
D14*
G01*
X12632994Y-6057290D03*
G01*
X12632994Y-9157309D03*
G01*
X20133005Y-6057290D03*
G01*
X20133005Y-9157309D03*
D15*
G01*
X12407897Y-12484100D03*
G01*
X12153897Y-12484100D03*
G01*
X11899897Y-12484100D03*
D16*
G01*
X11645897Y-12484100D03*
D17*
G01*
X14960600Y-10071100D03*
G01*
X12522200Y-6591300D03*
G01*
X12052300Y-11201400D03*
G01*
X12039600Y-6578600D03*
G01*
X11633200Y-11938000D03*
G01*
X11887200Y-7162800D03*
G01*
X18402300Y-13665200D03*
G01*
X12192000Y-6667500D03*
G01*
X16713200Y-13792200D03*
G01*
X11811000Y-8280400D03*
G01*
X22440900Y-13525500D03*
G01*
X11391900Y-8343900D03*
G01*
X19050000Y-17170400D03*
G01*
X19494500Y-17195800D03*
G01*
X11747500Y-11023600D03*
G01*
X11531600Y-10604500D03*
G01*
X9867900Y-9144000D03*
G01*
X10160000Y-10401300D03*
G01*
X22428200Y-17348200D03*
G01*
X22275800Y-14376400D03*
G01*
X19862800Y-11963400D03*
G01*
X17894300Y-10947400D03*
G01*
X15011400Y-10998200D03*
G01*
X12255500Y-10744200D03*
G01*
X11722100Y-10325100D03*
G01*
X11798300Y-10147300D03*
M02*
