G04 Layer: TopSolderMaskLayer*
G04 EasyEDA v6.5.54, 2026-06-06 13:59:06*
G04 68a7624a29224716bc3933342972c0b3,740549724bca42c3b7f260a0217f19ee,10*
G04 Gerber Generator version 0.2*
G04 Scale: 100 percent, Rotated: No, Reflected: No *
G04 Dimensions in millimeters *
G04 leading zeros omitted , absolute positions ,4 integer and 5 decimal *
%FSLAX45Y45*%
%MOMM*%

%AMMACRO1*4,1,8,-0.8212,-0.8509,-0.8509,-0.8209,-0.8509,0.8212,-0.8212,0.8509,0.8209,0.8509,0.8509,0.8212,0.8509,-0.8209,0.8209,-0.8509,-0.8212,-0.8509,0*%
%AMMACRO2*4,1,8,-2.5608,-5.765,-2.59,-5.7356,-2.59,5.7358,-2.5608,5.765,2.5606,5.765,2.59,5.7358,2.59,-5.7356,2.5606,-5.765,-2.5608,-5.765,0*%
%AMMACRO3*4,1,8,-0.921,-0.9507,-0.9507,-0.9207,-0.9507,0.921,-0.921,0.9507,0.9207,0.9507,0.9507,0.921,0.9507,-0.9207,0.9207,-0.9507,-0.921,-0.9507,0*%
%AMMACRO4*4,1,8,-0.8711,-0.5508,-0.9008,-0.5208,-0.9008,0.5211,-0.8711,0.5508,0.8708,0.5508,0.9008,0.5211,0.9008,-0.5208,0.8708,-0.5508,-0.8711,-0.5508,0*%
%AMMACRO5*4,1,8,-1.5211,-4.3007,-1.5508,-4.2708,-1.5508,4.271,-1.5211,4.3007,1.5208,4.3007,1.5508,4.271,1.5508,-4.2708,1.5208,-4.3007,-1.5211,-4.3007,0*%
%ADD10C,1.8016*%
%ADD11C,1.7016*%
%ADD12MACRO1*%
%ADD13C,3.3016*%
%ADD14MACRO2*%
%ADD15C,1.9016*%
%ADD16MACRO3*%
%ADD17MACRO4*%
%ADD18MACRO5*%
%ADD19C,0.0179*%

%LPD*%
D10*
G01*
X10109200Y-6058915D03*
G01*
X10109200Y-6312915D03*
G01*
X10109200Y-6566915D03*
G01*
X10109200Y-6820915D03*
G01*
X10109200Y-7074915D03*
G01*
X10109200Y-7328915D03*
G01*
X10109200Y-7582915D03*
G01*
X10109200Y-7836915D03*
G01*
X10109200Y-8090915D03*
G01*
X10109200Y-8344915D03*
G01*
X10109200Y-8598915D03*
G01*
X10109200Y-8852915D03*
G01*
X10109200Y-9106915D03*
G01*
X10109200Y-9360915D03*
G01*
X10109200Y-9614915D03*
G01*
X11633200Y-9614915D03*
G01*
X11633200Y-9360915D03*
G01*
X11633200Y-9106915D03*
G01*
X11633200Y-8852915D03*
G01*
X11633200Y-8598915D03*
G01*
X11633200Y-8344915D03*
G01*
X11633200Y-8090915D03*
G01*
X11633200Y-7836915D03*
G01*
X11633200Y-7582915D03*
G01*
X11633200Y-7328915D03*
G01*
X11633200Y-7074915D03*
G01*
X11633200Y-6820915D03*
G01*
X11633200Y-6566915D03*
G01*
X11633200Y-6312915D03*
G01*
X11633200Y-6058915D03*
D11*
G01*
X16993006Y-6057290D03*
G01*
X16739006Y-6057290D03*
G01*
X16485006Y-6057290D03*
G01*
X16231006Y-6057290D03*
G01*
X15977006Y-6057290D03*
G01*
X15723006Y-6057290D03*
G01*
X15469006Y-6057290D03*
G01*
X15215006Y-6057290D03*
G01*
X14961006Y-6057290D03*
G01*
X14707006Y-6057290D03*
G01*
X14453006Y-6057290D03*
G01*
X14199006Y-6057290D03*
G01*
X13945006Y-6057290D03*
G01*
X13691006Y-6057290D03*
G01*
X13437006Y-6057290D03*
D12*
G01*
X13183006Y-6057290D03*
D13*
G01*
X12632994Y-6057290D03*
G01*
X12632994Y-9157309D03*
G01*
X20133005Y-6057290D03*
G01*
X20133005Y-9157309D03*
D14*
G01*
X12585700Y-10067925D03*
G01*
X14617700Y-10074275D03*
D15*
G01*
X12407897Y-12484100D03*
G01*
X12153897Y-12484100D03*
G01*
X11899897Y-12484100D03*
D16*
G01*
X11645900Y-12484100D03*
D17*
G01*
X22727805Y-17798173D03*
G01*
X23347794Y-17798173D03*
G01*
X22727805Y-18168226D03*
G01*
X23347794Y-18168226D03*
G01*
X16949305Y-17798173D03*
G01*
X17569294Y-17798173D03*
G01*
X16949305Y-18168226D03*
G01*
X17569294Y-18168226D03*
G01*
X16936605Y-13784973D03*
G01*
X17556594Y-13784973D03*
G01*
X16936605Y-14155026D03*
G01*
X17556594Y-14155026D03*
G01*
X22727805Y-13797673D03*
G01*
X23347794Y-13797673D03*
G01*
X22727805Y-14167726D03*
G01*
X23347794Y-14167726D03*
D18*
G01*
X15548114Y-10134600D03*
G01*
X17548110Y-10134600D03*
M02*
